PathFileType	4	(X/Y/Z)	C:/Users/beibeiliu/ov580/test_trc/capture2\sequence.32_training_dense_right.trc
DataRate	CameraRate	NumFrames	NumMarkers	Units	OrigDataRate	OrigDataStartFrame	OrigNumFrames
120	120	23	19	mm	120	41	327
Frame#	Time	ThumbCMC			ThumbMCP			ThumbIP			ThumbTip			IndexMCP			IndexPIP			IndexTip			MiddleMCP			MiddlePIP			MiddleTip			RingMCP			RingPIP			RingTip			PinkyMCP			PinkyPIP			PinkyTip			BackHand1			BackHand2			BackHand3	
		X0	Y0	Z0	X1	Y1	Z1	X2	Y2	Z2	X3	Y3	Z3	X4	Y4	Z4	X5	Y5	Z5	X6	Y6	Z6	X7	Y7	Z7	X8	Y8	Z8	X9	Y9	Z9	X10	Y10	Z10	X11	Y11	Z11	X12	Y12	Z12	X13	Y13	Z13	X14	Y14	Z14	X15	Y15	Z15	X16	Y16	Z16	X17	Y17	Z17	X18	Y18	Z18	
40	0.333333	158.6	31.8048	98.4938	140.539	43.9419	76.9547	131.697	50.8636	51.7529	123.876	46.4226	29.4265	170.939	12.5596	29.5193	167.505	9.44306	4.64983	166.151	5.03085	-23.4838	141.876	-2.74403	23.7802	113.979	10.8168	21.0232	100.582	20.8657	55.9245	128.875	-17.7821	33.1828	103.032	0.222298	38.782	102.862	9.30161	70.7209	121.207	-31.2941	42.9317	98.9484	-12.1535	52.8026	107.306	0.96655	80.295	164.83	-29.4793	75.2303	169.453	-31.5578	106.066	176.482	-2.87266	89.0829	
41	0.341667	155.346	30.3274	97.2134	135.921	44.5661	75.6724	126.8	43.8528	47.2173	117.143	37.1571	23.9388	171.909	12.8955	27.6575	168.98	9.05519	2.57553	168.771	5.2071	-20.4301	139.892	0.833781	21.2815	110.126	9.74322	24.8079	104.999	17.7524	61.734	125.097	-14.5487	31.999	103.612	1.57091	41.2958	110.772	8.01377	77.5669	121.663	-30.6335	44.6409	102.674	-7.27994	57.5347	112.343	-1.82822	84.5062	165.538	-30.9316	76.4681	165.96	-29.4734	103.422	177.521	1.27738	89.151	
42	0.35	153.372	30.1764	94.0613	132.153	41.8343	72.8273	121.606	41.73	43.1959	113.162	30.7244	20.6112	170.429	9.00725	23.948	168.642	7.20784	3.33168	168.883	2.03787	-20.9461	138.335	-1.27945	20.9823	111.081	8.97176	23.6651	107.632	18.7135	61.355	127.897	-11.0611	33.298	103.28	3.28325	45.8378	112.398	11.2477	75.316	120.377	-29.0915	44.4975	101.167	-10.0919	58.6339	117.969	-1.26267	87.2464	165.428	-29.2525	75.716	165.828	-29.1784	102.906	176.463	2.17356	85.053	
43	0.358333	151.414	34.6948	93.2786	129.745	40.5319	70.2608	119.158	40.1741	44.104	112.003	27.7234	24.2656	170.495	10.1683	28.1858	172.021	10.0693	-1.65555	171.857	3.90875	-21.5017	142.735	0.623364	24.1998	112.544	14.6855	24.0496	109.894	20.4696	59.229	129.211	-12.0203	32.4369	104.36	5.41441	47.4095	113.49	7.46416	77.5912	119.662	-26.6762	42.9448	104.597	-6.67175	58.8353	120.646	-1.81231	86.15	165.4	-26.7028	75.7701	166.913	-26.4651	103.196	174.793	1.04287	88.933	
44	0.366667	149.361	31.8307	89.7568	128.446	41.2997	69.6848	117.321	39.8899	43.5822	109.763	25.9323	22.5535	173.029	12.278	22.9009	172.268	11.798	1.45774	171.825	0.499447	-22.9529	141.568	3.53536	21.532	111.376	12.5121	25.3699	113.028	19.7877	61.1255	125.843	-9.77932	31.2136	104.489	6.68991	46.7711	115.441	8.50392	76.4097	123.449	-22.5482	44.0103	104.941	-6.0366	60.6239	123.641	0.830714	82.5536	165.989	-26.7981	71.7124	164.188	-24.4583	106.928	175.214	5.04858	89.0745	
45	0.375	148.78	34.2522	89.8457	127.165	43.7955	65.3176	116.148	43.2044	38.998	108.281	26.3301	18.2348	171.434	12.2854	27.0816	171.866	14.0571	0.459673	173.22	4.93401	-25.3211	143.235	5.57719	20.9879	114.278	16.7955	21.7749	114.152	20.1609	60.5109	130.795	-8.62635	32.0187	105.071	7.71598	44.8392	116.087	11.8612	75.3051	119.798	-22.7016	41.4127	105.477	-4.7654	55.1008	121.389	-0.754861	85.6099	164.671	-22.1266	73.9885	164.331	-25.3496	107.473	176.01	8.94491	85.638	
46	0.383333	147.988	39.9151	88.4883	126.371	44.9954	65.1692	113.511	43.4357	35.8774	107.748	27.4875	21.8068	171.664	17.8953	24.2755	170.496	12.5185	-0.410541	171.779	3.71035	-27.2143	142.378	5.52207	21.0116	112.664	18.3168	22.9396	114.475	21.5566	59.184	130.717	-7.0742	30.5229	104.995	9.36645	42.9831	116.876	13.8196	73.6253	118.345	-22.1941	39.8067	103.37	-2.80703	59.304	122.282	3.74708	80.1566	161.773	-24.4977	70.4114	164.276	-22.7344	102.239	174.346	7.3707	85.4899	
47	0.391667	147.679	38.276	90.3716	124.267	49.0738	63.1264	112.623	46.9591	37.4648	107.785	24.8527	20.7511	171.09	20.2546	24.1976	170.013	11.7906	-2.21777	172.316	8.98467	-25.1955	139.5	4.73742	18.9124	110.173	19.1363	24.3687	115.751	25.8925	60.0148	129.395	-7.39738	29.9712	102.365	8.30827	44.288	115.144	14.9806	71.9238	120.153	-20.2027	40.238	105.233	-0.134992	53.5798	120.816	7.16174	79.0312	163.724	-22.8867	73.0892	165.079	-17.3255	105.415	174.27	11.0606	87.9747	
48	0.4	146.486	42.6535	88.7137	123.142	51.5255	64.0096	111.744	46.1051	35.4593	105.786	29.4495	20.5491	170.776	17.743	18.82	170.993	18.3713	-0.687146	170.769	7.24034	-23.4135	138.689	6.07566	18.408	111.104	20.1108	21.8407	113.953	26.5894	58.6857	128.823	-3.92364	28.0346	103.224	8.49119	39.4065	116.921	14.5517	74.6797	121.357	-20.7125	40.8039	101.025	-2.87517	55.4455	119.611	7.75217	78.1387	162.687	-20.2297	74.322	164.681	-17.8755	102.467	174.123	13.1381	86.0828	
49	0.408333	145.986	41.4668	86.5933	123.344	49.5971	59.13	111.111	48.285	37.4183	105.805	27.667	18.8177	168.57	19.1705	22.2357	169.147	15.2724	-5.83418	171.071	7.02333	-28.3264	142.613	9.97678	20.2637	107.719	17.7055	23.881	111.234	25.5391	56.8341	125.592	-6.22183	28.214	103.606	10.864	38.7353	115.106	16.8247	73.6388	123.771	-18.3944	40.3523	101.627	-2.65443	54.9057	117.305	8.6148	78.308	163.208	-18.6673	71.485	163.379	-13.0169	101.683	174.414	13.9017	85.8819	
50	0.416667	144.642	46.04	84.0468	120.633	53.0373	60.4932	110.437	48.2563	37.164	104.929	27.807	16.2573	170.416	21.4081	19.7404	170.195	17.5988	-4.47415	171.058	8.64949	-25.6849	138.394	10.6579	16.0772	110.735	20.3254	19.6501	109.649	22.6281	57.4304	125.647	-6.85311	27.8957	102.122	8.6313	38.9286	113.475	15.4956	73.5273	121.666	-17.5673	39.9969	103.445	1.61083	51.8137	117.407	5.53487	80.5238	164.067	-14.814	68.39	165.225	-12.2738	100.414	172.068	14.5504	86.1003	
51	0.425	143.839	48.3889	87.5154	122.346	50.9711	58.7282	110.968	46.4655	37.276	105.573	27.9298	17.2115	168.593	20.6931	22.681	167.13	16.8261	-1.48756	170.659	11.0825	-27.0162	141.211	9.3314	19.3205	110.426	19.7463	18.6752	111.018	29.1795	57.0307	126.243	-7.58561	28.7569	102.334	12.9756	40.9475	113.33	16.7802	73.284	120.813	-16.2094	39.0423	101.307	-2.66824	53.0452	120.192	9.33478	80.9174	164.058	-14.5919	68.5713	163.472	-14.4752	102.248	173.866	17.5584	84.776	
52	0.433333	144.459	48.1769	85.5266	120.204	53.1595	59.5959	110.688	45.0399	35.5404	104.248	30.7016	16.9196	167.304	20.4234	18.1276	168.269	19.3138	-6.20629	168.201	6.52509	-30.0606	138.182	8.81767	16.3527	110.31	21.4731	18.8016	109.778	25.4119	56.776	125.342	-2.96178	26.8689	102.187	10.7957	39.9974	113.507	17.6711	72.7236	122.627	-16.5343	39.0335	102.67	0.913891	51.924	118.178	10.4695	78.5163	163.912	-16.1777	69.7694	163.912	-9.03927	103.989	171.426	16.4382	83.9634	
53	0.441667	144.11	47.7184	86.0875	120.182	54.996	60.1844	109.698	48.7764	37.2586	104.179	28.6773	14.5084	167.182	21.9685	21.3254	166.02	16.9113	-1.84043	166.005	7.55865	-25.6293	140.391	11.8894	17.3393	106.697	20.5684	21.2192	108.143	25.1306	56.1477	123.593	-4.619	26.3169	100.912	9.23294	39.4728	115.195	21.176	70.4215	121.584	-18.8111	39.3554	100.535	-2.71666	52.7292	116.164	11.8295	76.9362	164.357	-15.3419	71.8857	164.612	-9.83413	102.285	173.996	19.3751	83.0706	
54	0.45	143.134	44.8853	86.3338	120.79	51.4156	62.7167	110.17	46.7695	34.6299	104.059	31.6641	18.294	167.053	20.2882	17.5563	166.907	17.8577	-7.31209	166.889	9.37934	-26.6347	138.079	11.6126	15.9457	106.712	21.5481	21.648	108.256	28.9165	53.9486	124.491	-1.39865	26.3673	99.9447	8.23914	39.6858	110.894	19.0396	69.3576	119.124	-15.6814	37.6588	101.905	1.21098	53.3691	120.047	10.3669	80.9854	163.374	-12.2325	68.4107	163.35	-10.9252	102.547	173.792	19.188	80.3195	
55	0.458333	142.812	43.9124	84.9821	121.138	49.2818	59.0818	109.111	47.6659	36.666	104.219	26.9289	17.354	166.981	23.0808	18.3328	165.341	16.9604	-5.40177	166.137	9.64312	-26.1096	138.356	10.8419	16.684	108.262	20.7627	19.6931	110.628	26.5204	57.4575	125.662	-5.75674	27.7817	101.895	14.0181	39.8865	110.725	17.1767	72.1966	121.495	-16.6511	38.6768	100.213	0.0574631	54.72	117.676	12.4858	77.7137	163.898	-14.3923	68.3102	162.426	-10.1807	102.803	172.886	21.4496	80.8706	
56	0.466667	143.164	45.0002	83.6536	119.105	50.8663	58.5717	109.677	45.8958	34.1856	103.415	28.8781	16.0363	165.776	21.1468	17.4876	165.129	20.5113	-4.07481	166.342	11.0968	-29.5076	138.633	10.9814	16.4323	108.402	18.3174	17.9785	108.948	27.0829	54.3701	127.106	-2.14909	27.1443	98.8084	9.53647	39.7273	108.979	16.2639	70.3878	121.65	-14.3473	37.6275	99.484	-0.484126	53.2762	117.599	7.59574	79.5082	162.046	-14.6553	70.3861	163.54	-9.82779	101.238	171.428	18.2519	80.3452	
57	0.475	141.927	46.72	84.0477	118.793	52.3003	55.7084	106.92	48.4794	29.5822	103.079	31.7977	16.9611	166.22	25.3724	18.0447	165.13	19.6873	-6.29302	164.645	10.9674	-30.8754	136.954	9.98127	16.0155	105.707	21.3704	18.7517	106.392	25.9946	53.5723	125.445	-4.5633	26.849	99.2042	10.0467	37.276	110.417	21.3422	68.4676	117.651	-16.1935	35.764	101.558	2.36052	49.7213	119.765	11.2696	78.6635	163.609	-10.5572	68.9603	162.969	-9.86404	97.5575	170.963	18.5347	79.8187	
58	0.483333	141.36	46.4358	80.7613	116.744	53.7635	58.7969	105.641	53.1189	33.3169	100.738	33.1351	14.0967	164.363	24.6786	17.5807	165.484	23.9403	-9.26857	165.445	15.619	-30.9779	138.699	10.738	15.7102	104.01	18.5141	16.8154	103.262	30.7701	52.0193	126.488	-0.0108392	24.644	98.4882	9.47321	38.7766	107.645	20.0226	66.8786	118.938	-16.7745	35.5425	99.8747	1.24575	50.0836	115.541	11.2248	77.7098	160.803	-12.6106	69.5357	162.376	-8.94116	101.926	170.554	20.1249	81.0827	
59	0.491667	139.63	46.3059	81.5869	114.836	56.2661	57.958	105.412	48.0791	32.4601	98.1717	37.6538	14.2046	165.471	29.4179	16.9705	164.647	23.6567	-7.02984	165.732	13.3508	-30.8615	138.349	11.3176	11.6193	106.906	18.3714	9.00702	94.7086	27.8888	40.0267	124.814	-3.16141	23.3199	97.4992	9.1878	35.6512	105.722	18.0533	66.2947	120.73	-18.2664	35.4689	98.6896	-1.10026	48.3091	113.696	11.6157	72.1989	161.305	-10.0815	64.723	162.795	-7.38113	100.966	170.535	20.5101	81.5432	
60	0.5	137.674	51.2077	83.7986	114.699	51.958	59.0476	102.523	52.2117	33.6643	94.8231	40.556	11.4008	166.887	28.0187	16.0083	166.978	27.2671	-10.4278	169.378	19.8582	-33.4203	146.956	12.8918	12.3858	117.627	19.1214	-2.13034	88.884	26.7069	25.6144	123.408	-1.9811	21.1084	99.1871	9.75343	32.5562	105.598	20.1087	64.4813	120.303	-17.5213	35.7867	101.806	5.0219	46.3827	111.782	12.0273	73.7408	162.319	-10.2614	66.7777	162.735	-6.43205	99.7241	170.615	22.5922	78.3467	
61	0.508333	136.779	51.3502	80.8059	109.545	57.1181	60.0859	98.0278	51.4891	32.6785	95.3639	33.7916	15.994	166.242	34.3498	20.9796	167.335	28.2246	-7.65891	169.824	26.3737	-29.039	150.088	9.93643	13.842	126.34	16.463	-11.0192	93.709	25.571	-5.31889	127.626	2.94626	21.1009	100.559	12.3993	26.2097	101.146	22.7369	59.6484	120.272	-10.3083	33.2276	99.4254	2.92981	44.9991	115.01	18.6689	73.5569	160.283	-7.4522	65.9771	161.467	-4.51097	98.6837	169.516	28.2184	80.0678	
62	0.516667	135.073	53.9573	82.1347	107.756	54.3125	59.1378	96.4428	45.6442	30.3874	93.6938	28.0613	15.2785	164.232	34.6636	20.9666	165.572	32.4163	-3.51876	171.894	31.1538	-29.3472	154.11	10.9243	8.60444	137.865	13.6276	-14.6604	104.4	15.6969	-27.8493	128.378	0.678966	21.4714	99.2055	16.5584	25.104	99.6863	25.7263	59.5332	120.097	-13.0496	34.1616	98.9499	7.12653	44.6876	112.587	20.8578	70.5519	160.475	-4.00594	68.8386	160.911	-4.18554	101.136	166.613	27.9718	79.0351	
